<?xml version="1.0" standalone="no"?>
<!DOCTYPE svg PUBLIC "-//W3C//DTD SVG 20010904//EN"
 "http://www.w3.org/TR/2001/REC-SVG-20010904/DTD/svg10.dtd">
<svg version="1.0" xmlns="http://www.w3.org/2000/svg"
 width="538.000000pt" height="434.000000pt" viewBox="0 0 538.000000 434.000000"
 preserveAspectRatio="xMidYMid meet">

<g transform="translate(0.000000,434.000000) scale(0.100000,-0.100000)"
fill="#ffffff" stroke="none">
<path d="M2530 4259 c-53 -9 -447 -57 -1110 -134 -261 -30 -630 -73 -818 -95
-191 -23 -360 -47 -380 -56 -125 -52 -204 -193 -183 -325 19 -117 40 -140 326
-365 472 -373 847 -657 1110 -842 237 -167 492 -279 724 -318 122 -20 331 -15
446 11 39 9 176 34 305 56 375 64 807 144 1152 215 176 36 322 63 325 61 3 -3
-12 -88 -32 -189 -43 -211 -56 -387 -36 -499 l13 -69 -36 -42 c-78 -91 -111
-199 -104 -342 6 -108 32 -184 88 -255 l39 -50 -49 -154 c-88 -277 -94 -307
-95 -457 0 -130 1 -137 30 -195 36 -72 93 -114 199 -147 130 -41 456 -26 628
28 65 21 86 33 129 76 31 31 64 78 83 117 26 58 30 77 30 151 0 100 -19 172
-76 284 -33 65 -109 186 -173 272 -6 9 0 24 21 51 46 59 64 91 84 148 74 215
-15 467 -205 580 -15 9 -15 20 -1 157 30 291 106 573 209 778 51 103 52 106
52 195 0 101 -21 158 -79 214 -17 17 -184 107 -376 204 -376 189 -725 376
-1149 614 -426 240 -523 284 -704 318 -84 16 -308 19 -387 4z"/>
<path d="M525 2407 c-4 -51 -17 -177 -31 -282 -53 -418 -56 -456 -51 -610 9
-266 77 -445 242 -638 122 -143 360 -325 520 -398 389 -177 882 -268 1385
-256 288 7 446 31 658 98 184 59 326 142 442 258 123 124 138 163 291 730 71
267 132 495 135 507 5 21 -4 19 -332 -47 -802 -164 -1037 -199 -1350 -199
-344 0 -608 62 -918 217 -260 130 -557 339 -877 619 l-107 93 -7 -92z"/>
</g>
</svg>
